<svg xmlns="http://www.w3.org/2000/svg" width="1164" height="475" viewBox="0 0 1164 475">
<path d="M 68 39 L 68 110 L 167 111 L 167 436 L 239 436 L 239 111 L 338 110 L 339 39 Z " fill="#000" fill-rule="evenodd"/>
<path d="M 454 106 L 421 112 L 397 121 L 367 139 L 342 162 L 322 190 L 309 218 L 301 251 L 300 286 L 305 316 L 316 346 L 336 378 L 357 400 L 387 421 L 424 436 L 452 441 L 483 441 L 518 434 L 550 420 L 576 402 L 600 377 L 614 356 L 630 317 L 635 289 L 635 258 L 630 230 L 615 193 L 599 169 L 578 147 L 548 126 L 514 112 L 482 106 Z M 458 178 L 493 181 L 511 188 L 529 200 L 552 228 L 563 262 L 563 285 L 559 303 L 542 334 L 515 357 L 479 369 L 442 366 L 422 358 L 405 346 L 382 317 L 372 282 L 376 245 L 391 216 L 419 191 L 433 184 Z " fill="#000" fill-rule="evenodd"/>
<path d="M 658 39 L 658 436 L 730 436 L 731 275 L 846 436 L 935 436 L 819 274 L 935 111 L 846 111 L 731 273 L 730 39 Z " fill="#000" fill-rule="evenodd"/>
<path d="M 1100 39 L 1028 39 L 1028 110 L 956 111 L 956 436 L 1028 436 L 1028 111 L 1099 111 Z " fill="#000" fill-rule="evenodd"/>
</svg>