<svg xmlns="http://www.w3.org/2000/svg" viewBox="0 0 65.24 28.38"><defs><style>.cls-1{fill:#0000b4;}.cls-2{fill:none;}.cls-3{fill:#ff5000;}</style></defs><g id="Layer_2" data-name="Layer 2"><g id="Layer_1-2" data-name="Layer 1"><polygon class="cls-1" points="48.64 5.33 49.2 9.86 65.24 0 48.64 5.33"/><path class="cls-2" d="M9.14,16.41h0a1.09,1.09,0,0,0-.3.07,1.76,1.76,0,0,0-1,1.73,1,1,0,0,0,.43.79l0,0,0,0a1.87,1.87,0,0,0,.42.11h4.52a3.09,3.09,0,0,1,3.12,2.24l.15.53L18,16.4H9.14Z"/><polygon class="cls-3" points="50.37 6.97 65.24 0 54.79 10.21 50.37 6.97"/><polygon class="cls-3" points="48.64 5.33 45.12 2.44 65.24 0 48.64 5.33"/><path class="cls-1" d="M45.58,27.45a2.29,2.29,0,0,1-.15.43.63.63,0,0,1-.15.21.75.75,0,0,1-.2.11l-.29.09-.34.05-.36,0a2.32,2.32,0,0,1-.8-.12,1,1,0,0,1-.48-.38,1.23,1.23,0,0,1-.17-.63,3.31,3.31,0,0,1,.14-.91l.78-2.93h-.68q-.12,0-.15-.15a1.63,1.63,0,0,1,.07-.5c0-.12.07-.23.1-.31a1.21,1.21,0,0,1,.1-.2.38.38,0,0,1,.11-.11.27.27,0,0,1,.12,0h.68l.34-1.28a.26.26,0,0,1,.07-.11.49.49,0,0,1,.15-.09l.26-.05h.79a1,1,0,0,1,.23.05.22.22,0,0,1,.1.09.14.14,0,0,1,0,.11l-.34,1.28h1.24a.15.15,0,0,1,.1,0,.13.13,0,0,1,0,.11.65.65,0,0,1,0,.2,3.12,3.12,0,0,1-.07.31,1.54,1.54,0,0,1-.2.5.28.28,0,0,1-.22.15H45.17l-.72,2.69a1.24,1.24,0,0,0,0,.7c.06.15.21.23.46.23l.24,0,.19,0,.15-.06.11,0,.07,0a.19.19,0,0,1,0,.09,1.76,1.76,0,0,1,0,.19C45.63,27.23,45.61,27.33,45.58,27.45Z"/><path class="cls-1" d="M52.12,25a.79.79,0,0,1-.25.44.6.6,0,0,1-.39.14H48a2,2,0,0,0-.09.66.93.93,0,0,0,.14.51.79.79,0,0,0,.4.31,1.7,1.7,0,0,0,.68.11,4.26,4.26,0,0,0,.76-.06,5.34,5.34,0,0,0,.59-.13l.43-.14a.84.84,0,0,1,.26-.06l.09,0a.13.13,0,0,1,0,.09.42.42,0,0,1,0,.16c0,.07,0,.16-.07.26a1,1,0,0,1-.07.24,1.07,1.07,0,0,1-.06.17.63.63,0,0,1-.07.12l-.09.09-.26.13a5,5,0,0,1-.52.15,5.44,5.44,0,0,1-.69.12,5.32,5.32,0,0,1-.81.06,3.93,3.93,0,0,1-1.28-.19,1.64,1.64,0,0,1-.8-.59,1.76,1.76,0,0,1-.31-1,4.71,4.71,0,0,1,.18-1.4A5.8,5.8,0,0,1,47,23.85a4.38,4.38,0,0,1,.85-1,3.49,3.49,0,0,1,1.1-.64,3.59,3.59,0,0,1,1.28-.23,2.77,2.77,0,0,1,1.16.21,1.47,1.47,0,0,1,.68.59,1.77,1.77,0,0,1,.24.88,3.51,3.51,0,0,1-.14,1.12Zm-1.44-.46a1.48,1.48,0,0,0,0-1.06.8.8,0,0,0-.8-.39,1.31,1.31,0,0,0-.56.12,1.33,1.33,0,0,0-.46.31,1.84,1.84,0,0,0-.36.46,2.56,2.56,0,0,0-.24.56Z"/><path class="cls-1" d="M53.86,28a.29.29,0,0,1-.07.12l-.15.08-.26,0-.4,0-.38,0-.24,0a.35.35,0,0,1-.11-.08.24.24,0,0,1,0-.12L54.5,19.6a.25.25,0,0,1,.07-.12.42.42,0,0,1,.15-.08.91.91,0,0,1,.26-.06l.4,0,.38,0a.7.7,0,0,1,.24.06.17.17,0,0,1,.1.08.17.17,0,0,1,0,.12Z"/><path class="cls-1" d="M47.51,13.15H43.37l-4.7,5.3h0v0h0l-1.78-5.31v0H29.94l-3.56,3.3L23.07,19.5l1.7-6.35H8.23a10.26,10.26,0,0,0-1.34.12,4.48,4.48,0,0,0-3.24,2.25,9.72,9.72,0,0,0-.9,2.53,5.55,5.55,0,0,0-.24,2.15,1.81,1.81,0,0,0,1.13,1.53,4.7,4.7,0,0,0,1.88.33h3a5.66,5.66,0,0,1,.87.06,1.31,1.31,0,0,1,1,.45,1.19,1.19,0,0,1,.2.75,1.38,1.38,0,0,1-1,1.36.58.58,0,0,1-.18,0H.7L0,28.16H0v.07H10.14a8.42,8.42,0,0,0,1.18-.08,4.46,4.46,0,0,0,2-.8,7,7,0,0,0,1.89-1.62l.45-.57-.82,3.07h5.88c.26-1,.52-1.95.78-2.91l.85-3.17L23,23.21l.08.14.37.68q1.15,2.1,2.29,4.2h5.78l-.52-1-3.33-6.1a.75.75,0,0,1,.17-1q1-.9,2-1.83l2.25-2.07.28.56a.56.56,0,0,1,.07.14l.31.73c.62,1.47,1.25,2.94,1.86,4.42a.94.94,0,0,1,0,.6l-.87,3.23-.61,2.29H39c.51-1.95,1-3.87,1.55-5.8a1,1,0,0,1,.25-.45l2.74-2.9,5.62-5.93ZM16.53,22l-.15-.53a3.09,3.09,0,0,0-3.12-2.24H8.86s-.12,0-.12,0-.33-.07-.42-.11l0,0,0,0a1.05,1.05,0,0,1-.43-.79,1.77,1.77,0,0,1,1-1.74,1.63,1.63,0,0,1,.3-.07H18Z"/><polygon class="cls-3" points="18.85 13.14 18.02 16.42 24.77 13.14 18.85 13.14"/></g></g></svg>